<svg width="152" height="41" viewBox="0 0 152 41" fill="none" xmlns="http://www.w3.org/2000/svg">
<path fill-rule="evenodd" clip-rule="evenodd" d="M0 33.5798H16.6249V28.1219H6.01635V7.29816H0V33.5798V33.5798Z" fill="white"/>
<path fill-rule="evenodd" clip-rule="evenodd" d="M25.0425 33.5798V15.4779H19.0257V33.5798H25.0425V33.5798ZM22.0341 13.0063C24.1323 13.0063 25.4383 11.6162 25.4383 9.87796C25.3992 8.1022 24.1323 6.75124 22.0741 6.75124C20.0156 6.75124 18.6699 8.1022 18.6699 9.87796C18.6699 11.6162 19.9756 13.0063 21.9948 13.0063H22.0339H22.0341Z" fill="white"/>
<path fill-rule="evenodd" clip-rule="evenodd" d="M27.8359 33.5798H33.8529V23.4706C33.8529 22.9296 33.892 22.3891 34.0511 22.0024C34.4858 20.9219 35.4758 19.8024 37.138 19.8024C39.3155 19.8024 40.1865 21.4629 40.1865 23.8949V33.5798H46.2028V23.2001C46.2028 17.6398 43.2341 15.0526 39.2755 15.0526C36.0298 15.0526 34.6046 16.8669 33.8128 18.1027H33.853V15.4779H27.836C27.9151 17.1765 27.836 33.5798 27.836 33.5798H27.8359Z" fill="white"/>
<path fill-rule="evenodd" clip-rule="evenodd" d="M54.691 7.29816H48.6738V33.5798H54.691V27.711L56.1947 25.8179L60.9054 33.5798H68.3072L60.3909 22.343L67.318 14.6979H60.0744C60.0744 14.6979 55.1265 21.5379 54.691 22.3489V7.29816V7.29816Z" fill="white"/>
<path fill-rule="evenodd" clip-rule="evenodd" d="M84.3981 26.0289C84.4771 25.564 84.5961 24.6721 84.5961 23.6639C84.5961 18.9843 82.2206 14.234 75.9668 14.234C69.2769 14.234 66.1895 19.5248 66.1895 24.3234C66.1895 30.2586 69.9499 33.9655 76.5207 33.9655C79.1334 33.9655 81.5477 33.5798 83.5271 32.7688L82.7351 28.7951C81.1124 29.3335 79.4499 29.6024 77.3917 29.6024C74.5813 29.6024 72.1273 28.4491 71.9291 25.9904L84.3981 26.0279V26.0289ZM71.8899 21.9584C72.0481 20.4135 73.0773 18.1347 75.6503 18.1347C78.3809 18.1347 79.0147 20.5683 79.0147 21.9584H71.8899V21.9584Z" fill="white"/>
<path fill-rule="evenodd" clip-rule="evenodd" d="M99.4466 7.29805V16.3959H99.3676C98.4966 15.1226 96.6754 14.273 94.2615 14.273C89.6298 14.273 85.5529 17.9799 85.5921 24.3121C85.5921 30.182 89.2735 34.0045 93.8652 34.0045C96.3589 34.0045 98.7338 32.923 99.9213 30.8376H100.04L100.278 33.5797H105.622C105.543 32.3054 105.463 30.1043 105.463 27.9423V7.29805H99.4466V7.29805ZM99.4466 25.2007C99.4466 25.6636 99.407 26.1275 99.3276 26.5131C98.9718 28.1737 97.5463 29.3319 95.8051 29.3319C93.3112 29.3319 91.6882 27.3242 91.6882 24.1578C91.6882 21.1848 93.074 18.7909 95.8444 18.7909C97.7046 18.7909 99.0111 20.0647 99.3676 21.6476C99.4466 21.9958 99.4466 22.382 99.4466 22.7292V25.2007V25.2007Z" fill="white"/>
<path d="M148.408 40.0889C150.034 40.0889 151.352 38.8029 151.352 37.2168V2.87109C151.351 1.28567 150.034 1.85695e-06 148.408 0H114.459C112.833 0.000250025 111.516 1.28582 111.516 2.87109V37.2168C111.516 38.8028 112.833 40.0886 114.459 40.0889H148.408ZM120.544 12.9844C118.525 12.9844 117.219 11.5944 117.219 9.85742C117.219 8.08113 118.565 6.72949 120.623 6.72949C122.681 6.72965 123.948 8.08124 123.987 9.85742C123.987 11.5944 122.681 12.9843 120.583 12.9844H120.544ZM126.92 33.5586C126.92 33.5586 126.999 17.1557 126.92 15.4561H132.937V18.0205C133.736 16.7869 135.166 15.0313 138.359 15.0312C142.318 15.0312 145.286 17.6184 145.286 23.1787V33.5586H139.271V23.874C139.271 21.4405 138.399 19.7803 136.222 19.7803C134.56 19.7804 133.57 20.8997 133.135 21.9805C132.976 22.3672 132.937 22.9082 132.937 23.4492V33.5586H126.92ZM117.574 15.4561H123.592V33.5586H117.574V15.4561ZM132.937 18.0205C132.923 18.041 132.909 18.0609 132.896 18.0811H132.937V18.0205Z" fill="white"/>
</svg>
