<svg width="129" height="124" viewBox="0 0 129 124" fill="none" xmlns="http://www.w3.org/2000/svg">
<path d="M69.6005 19.7617L113.477 74.8857L58.2377 121.906L1 49.7411L11.6283 40.6125" stroke="black" stroke-width="2" stroke-miterlimit="10" stroke-linecap="round" stroke-linejoin="round"/>
<path d="M42.6476 91.6852L13.9161 34.3918L80.27 1L83.2043 6.82645" stroke="black" stroke-width="2" stroke-miterlimit="10" stroke-linecap="round" stroke-linejoin="round"/>
<path d="M58.6824 123.232L28.1862 33.2558L98.5038 9.3125L129 98.7847L58.6824 123.232Z" fill="#80ACED"/>
<path d="M65.2489 52.2626L60.3042 38.2334L41.2219 44.439L48.0481 63.2111L66.9752 57.1606L65.2489 52.2626Z" stroke="black" stroke-width="2" stroke-miterlimit="10" stroke-linecap="round" stroke-linejoin="round"/>
<path d="M50.5598 53.3177L54.3926 55.961L57.922 43.8169" stroke="black" stroke-width="2" stroke-miterlimit="10" stroke-linecap="round" stroke-linejoin="round"/>
<path d="M68.4299 39.3918L99.1897 29.6177" stroke="black" stroke-width="2" stroke-miterlimit="10" stroke-linecap="round" stroke-linejoin="round"/>
<path d="M74.4811 47.4236L92.3126 41.4927" stroke="black" stroke-width="2" stroke-miterlimit="10" stroke-linecap="round" stroke-linejoin="round"/>
<path d="M54.6987 80.6706L61.3231 99.2189L80.0607 93.1623L73.4363 74.4248L54.6987 80.6706Z" stroke="black" stroke-width="2" stroke-miterlimit="10" stroke-linecap="round" stroke-linejoin="round"/>
<path d="M63.5343 89.8698L67.3719 92.5164L70.9058 80.3569" stroke="black" stroke-width="2" stroke-miterlimit="10" stroke-linecap="round" stroke-linejoin="round"/>
<path d="M81.4119 74.7733L112.211 64.9868" stroke="black" stroke-width="2" stroke-miterlimit="10" stroke-linecap="round" stroke-linejoin="round"/>
<path d="M87.4707 82.8154L105.325 76.877" stroke="black" stroke-width="2" stroke-miterlimit="10" stroke-linecap="round" stroke-linejoin="round"/>
</svg>
