<svg width="111" height="128" viewBox="0 0 111 128" fill="none" xmlns="http://www.w3.org/2000/svg">
<g clip-path="url(#clip0_12_2400)">
<path d="M31.1446 7.05868C26.1703 -0.03036 22.6529 4.08269 21.0961 2.81662C20.6928 1.35197 22.2801 1.18092 23.3401 0.990735C25.4614 0.609261 27.7091 1.23391 29.4493 2.47676C30.946 3.548 32.1285 4.99979 32.8753 6.68187C40.1913 4.92618 48.2416 6.39726 54.6403 10.3044C57.3122 11.9271 59.7119 13.9605 61.7512 16.33C64.2133 15.4524 66.2949 15.1768 68.7678 16.3549C70.6475 17.236 72.0954 18.8346 72.786 20.7925C73.5019 22.818 73.3626 25.048 72.4015 26.968C71.6904 28.3721 70.7146 29.3392 69.4572 30.25C69.8044 31.8285 70.1096 33.2176 70.3439 34.8167C70.7586 34.3608 71.1833 31.7231 71.5162 30.7761C72.6298 27.5997 74.2032 25.8114 76.6798 23.6742C89.4921 32.1375 101.629 54.4968 104.537 69.5384C106.095 77.603 106.169 82.5282 105.787 90.5822C106.122 90.9594 106.338 91.3482 106.296 91.8583C105.544 101.065 102.063 110.148 95.4565 116.587C82.3488 129.358 63.4625 128.018 48.849 118.699C47.3788 117.761 45.7895 116.965 44.5406 115.724C44.046 115.229 44.1694 114.923 44.1879 114.292C29.4032 102.356 15.3668 79.9582 11.8136 61.255C15.6375 59.2715 17.8928 59.4733 21.8239 61.2874C22.3238 61.5181 22.7608 61.8005 23.2699 61.7116C22.0111 60.68 20.9406 59.8193 19.8075 58.6462C17.343 59.598 15.2865 60.0143 12.7401 58.8627C10.8325 58.0067 9.34756 56.4221 8.61736 54.4629C7.88169 52.434 7.98974 50.195 8.91709 48.2463C9.62942 46.7486 10.4941 45.9113 11.7309 44.8663C9.21943 36.8922 9.59502 28.8842 13.5589 21.4231C17.5378 13.9338 23.4009 9.95641 31.1446 7.05868Z" fill="#86AFED"/>
<path d="M31.1444 7.05917C26.1701 -0.0298711 22.6527 4.08318 21.0959 2.81711C20.6926 1.35246 22.2799 1.18141 23.3399 0.991224C25.4613 0.60975 27.7089 1.2344 29.4492 2.47725C30.9458 3.54849 32.1283 5.00028 32.8751 6.68236C40.1911 4.92667 48.2415 6.39775 54.6401 10.3049C57.312 11.9276 59.7117 13.961 61.751 16.3305C64.2131 15.4529 66.2947 15.1773 68.7676 16.3554C70.6473 17.2365 72.0953 18.8351 72.7858 20.793C73.5017 22.8185 73.3624 25.0485 72.4013 26.9685C71.6902 28.3726 70.7144 29.3397 69.457 30.2505C69.8042 31.829 70.1094 33.218 70.3437 34.8172C70.3474 36.7513 70.5265 38.5884 70.3184 40.5323C69.4999 48.1833 64.2273 55.8591 59.4894 61.6964C75.3072 62.1958 90.0177 65.9455 101.385 77.7109C102.36 78.7196 104.919 81.3256 105.007 82.7026C104.757 83.2751 104.909 83.1211 104.446 83.4816C103.715 83.4044 103.426 83.1301 102.985 82.5367C94.7057 71.3874 80.713 65.4569 67.2009 64.0379C65.1305 63.8198 57.0355 63.3203 55.1265 63.8583C51.0008 63.8705 42.8309 65.0958 38.9228 66.134C37.3825 66.2947 37.1447 67.0808 35.9132 65.7349C34.1436 65.5844 31.7665 64.8678 30.0283 64.39C28.256 65.3967 24.8764 62.6779 23.2697 61.7121C22.0109 60.6805 20.9404 59.8198 19.8073 58.6467C17.3428 59.5985 15.2863 60.0148 12.7399 58.8632C10.8323 58.0072 9.34737 56.4225 8.61717 54.4634C7.8815 52.4345 7.98955 50.1955 8.9169 48.2468C9.62923 46.7491 10.4939 45.9118 11.7307 44.8668C9.21924 36.8927 9.59483 28.8847 13.5587 21.4236C17.5376 13.9343 23.4007 9.9569 31.1444 7.05917Z" fill="white"/>
<path d="M31.1444 7.05917C26.1701 -0.0298711 22.6527 4.08318 21.0959 2.81711C20.6926 1.35246 22.2799 1.18141 23.3399 0.991224C25.4613 0.60975 27.7089 1.2344 29.4492 2.47725C30.9458 3.54849 32.1283 5.00028 32.8751 6.68236C40.1911 4.92667 48.2415 6.39775 54.6401 10.3049C57.312 11.9276 59.7117 13.961 61.751 16.3305C64.2131 15.4529 66.2947 15.1773 68.7676 16.3554C70.6473 17.2365 72.0953 18.8351 72.7858 20.793C73.5017 22.8185 73.3624 25.0485 72.4013 26.9685C71.6902 28.3726 70.7144 29.3397 69.457 30.2505C69.8042 31.829 70.1094 33.218 70.3437 34.8172C70.3474 36.7513 70.5265 38.5884 70.3184 40.5323C69.4999 48.1833 64.2273 55.8591 59.4894 61.6964C75.3072 62.1958 90.0177 65.9455 101.385 77.7109C102.36 78.7196 104.919 81.3256 105.007 82.7026C104.757 83.2751 104.909 83.1211 104.446 83.4816C103.715 83.4044 103.426 83.1301 102.985 82.5367C94.7057 71.3874 80.713 65.4569 67.2009 64.0379C65.1305 63.8198 57.0355 63.3203 55.1265 63.8583C51.0008 63.8705 42.8309 65.0958 38.9228 66.134C37.3825 66.2947 37.1447 67.0808 35.9132 65.7349C36.0523 65.4567 36.1692 65.2797 36.3323 65.0189C39.2455 63.1522 52.9859 62.0236 57.1869 61.7706C65.1333 50.2592 71.1529 44.5837 67.3948 29.4772C68.9098 28.3251 70.034 27.6114 70.8362 25.7807C72.1611 22.7558 70.917 19.2091 67.7747 17.9779C65.3014 17.0078 63.5905 17.5815 61.2976 18.5834C53.9247 10.0522 44.7309 6.42933 33.5216 8.4241C33.8218 10.4964 33.9412 11.9773 33.2629 14.0482C32.5587 16.2393 30.9952 18.0516 28.9311 19.0698C27.7582 19.6618 25.9971 20.4516 24.6954 20.0305C24.2524 19.6362 24.4021 19.8718 24.2399 19.292C25.1717 17.1785 32.8584 18.6222 31.758 8.88894C19.9488 12.9182 12.2637 22.2281 12.0377 34.9727C11.967 38.9579 12.7864 41.873 13.8893 45.6421C12.3374 46.7784 11.1627 47.6326 10.4361 49.5069C9.82982 51.0522 9.86859 52.776 10.5437 54.2925C11.1855 55.6845 12.3645 56.7565 13.8111 57.2632C16.2018 58.1254 17.968 57.4402 20.0879 56.4217C21.8568 57.8329 23.5735 59.8708 25.7333 61.1352C27.1044 61.9379 28.4989 62.3141 29.8027 63.1854C30.1268 63.7465 30.0179 63.6462 30.0283 64.39C28.256 65.3967 24.8764 62.6779 23.2697 61.7121C22.0109 60.6805 20.9404 59.8198 19.8073 58.6467C17.3428 59.5985 15.2863 60.0148 12.7399 58.8632C10.8323 58.0072 9.34737 56.4225 8.61717 54.4634C7.8815 52.4345 7.98955 50.1955 8.9169 48.2468C9.62923 46.7491 10.4939 45.9118 11.7307 44.8668C9.21924 36.8927 9.59483 28.8847 13.5587 21.4236C17.5376 13.9343 23.4007 9.9569 31.1444 7.05917Z" fill="black" stroke="black" stroke-width="1.07563"/>
<path d="M50.7068 42.946C51.3368 42.8737 51.4973 42.8997 51.9606 43.3071C52.2457 43.9555 52.2265 44.6471 52.0084 45.3118C50.3583 50.3569 46.2293 52.3888 41.2953 51.0816C40.5277 50.7782 39.4873 50.2182 40.0119 49.2458C41.3873 48.6016 41.5558 49.4552 42.7568 49.5977C48.0218 50.2226 49.4974 47.064 50.7068 42.946Z" fill="black" stroke="black" stroke-width="1.07563"/>
<path d="M48.3886 28.9243C49.6629 28.0793 51.1473 27.6619 52.6773 27.8113C54.0088 27.9408 56.1666 28.842 55.8433 30.4616C54.8782 30.9902 53.6289 29.8488 52.5364 29.6775C51.9381 29.5834 51.3014 29.6839 50.7019 29.7632C46.4245 31.5582 48.8604 33.4796 47.0481 35.3893C46.5545 35.5549 46.7961 35.564 46.303 35.323C44.8048 33.2125 46.7191 30.3355 48.3886 28.9243Z" fill="black" stroke="black" stroke-width="1.07563"/>
<path d="M28.2359 40.4346C29.2445 39.7787 30.5266 39.2747 31.7402 39.2518C33.0437 39.227 36.0014 39.9201 35.9664 41.5312C34.9997 42.4166 33.1529 41.2056 31.9838 41.1342C31.4658 41.1026 30.9324 41.2052 30.4246 41.2941C26.8579 42.7823 28.2784 46.4608 26.5854 46.8887C24.2102 45.8482 26.8688 41.6084 28.2359 40.4346Z" fill="black" stroke="black" stroke-width="1.07563"/>
<path d="M44.1879 114.292C44.6458 114.161 45.1089 113.923 45.5076 114.184C46.3278 114.721 47.1824 115.313 47.9914 115.86C49.3901 116.824 50.8345 117.72 52.3197 118.545C60.3683 123.028 70.1538 125.312 79.2722 123.288C87.273 121.5 94.2317 116.598 98.607 109.665C101.695 104.81 103.508 99.1061 104.208 93.4141C104.373 92.0734 104.165 90.7545 105.787 90.5823C106.122 90.9595 106.338 91.3483 106.296 91.8584C105.544 101.065 102.063 110.148 95.4565 116.587C82.3488 129.358 63.4625 128.018 48.8491 118.699C47.3788 117.762 45.7895 116.965 44.5407 115.724C44.046 115.229 44.1694 114.923 44.1879 114.292Z" fill="black" stroke="black" stroke-width="1.07563"/>
<path d="M38.9229 66.1338C42.831 65.0955 51.0009 63.8702 55.1265 63.8581C52.4136 66.1278 42.1831 67.5276 38.9229 66.1338Z" fill="white"/>
</g>
<defs>
<clipPath id="clip0_12_2400">
<rect width="110.79" height="128" fill="white"/>
</clipPath>
</defs>
</svg>
